<?xml version="1.0" encoding="UTF-8"?>
<svg id="Calque_1" data-name="Calque 1" xmlns="http://www.w3.org/2000/svg" version="1.1" viewBox="0 0 61 61">
  <defs>
    <style>
      .cls-1 {
        fill: #fbc432;
        stroke-width: 1.3px;
      }

      .cls-1, .cls-2, .cls-3 {
        stroke: #000;
        stroke-linecap: round;
        stroke-linejoin: round;
      }

      .cls-2 {
        stroke-width: .9px;
      }

      .cls-2, .cls-4 {
        fill: #000;
      }

      .cls-4, .cls-5, .cls-6 {
        stroke-width: 0px;
      }

      .cls-3 {
        fill: #f4c746;
      }

      .cls-5 {
        fill: #fff;
      }

      .cls-6 {
        fill: #b8a5ff;
      }
    </style>
  </defs>
  <rect class="cls-6" x=".5" y=".5" width="60" height="60" rx="10.4" ry="10.4"/>
  <g>
    <g>
      <path class="cls-5" d="M35.9,36.1c3.7,0,6.7-3,6.7-6.7s-3-6.7-6.7-6.7-6.7,3-6.7,6.7,3,6.7,6.7,6.7Z"/>
      <path class="cls-4" d="M31.2,29.3h4.8v-4.8c-2.6,0-4.8,2.1-4.8,4.8Z"/>
      <path class="cls-4" d="M35.9,29.3v4.8c2.6,0,4.8-2.1,4.8-4.8h-4.8Z"/>
    </g>
    <path class="cls-3" d="M32.5,8.2c-8.5,0-16.3,6.3-17.9,13.3-.3,1.3-.6,4.3-.7,5.3,0,.2,0,.4-.2.6l-3.8,9.5c0,.2-.1.4-.1.6,0,.8.7,1.5,1.5,1.5h2.2c.2,0,.3.2.3.3v4.9c0,8.8,4.1,9,7.3,8.4h0l7-2.2c.2,0,.4-.3.4-.5v-8.1c0-.2.1-.4.3-.4h14.7c.2,0,.4,0,.6-.2,4.2-3.4,6.9-8.6,6.9-14.5,0-10.3-8.3-18.7-18.6-18.7ZM35.9,36c-3.7,0-6.7-3-6.7-6.7s3-6.7,6.7-6.7,6.7,3,6.7,6.7-3,6.7-6.7,6.7Z"/>
    <line class="cls-1" x1="43.9" y1="46.6" x2="33.2" y2="46.6"/>
    <line class="cls-1" x1="43.9" y1="50.1" x2="33.2" y2="50.1"/>
    <path class="cls-2" d="M19.9,29.6c1.5,0,2.6-1.2,2.6-2.6s-1.2-2.6-2.6-2.6-2.6,1.2-2.6,2.6,1.2,2.6,2.6,2.6Z"/>
  </g>
</svg>