<svg width="74" height="73" viewBox="0 0 74 73" fill="none" xmlns="http://www.w3.org/2000/svg">
<g clip-path="url(#clip0_2078_3105)">
<path d="M44.43 43.14C49.9639 43.14 54.45 38.6539 54.45 33.12C54.45 27.5861 49.9639 23.1 44.43 23.1C38.8961 23.1 34.41 27.5861 34.41 33.12C34.41 38.6539 38.8961 43.14 44.43 43.14Z" fill="white" stroke="black" stroke-miterlimit="10"/>
<path d="M53.65 54.28H37.97C37.0477 54.28 36.3 55.0277 36.3 55.95V57.34C36.3 58.2623 37.0477 59.01 37.97 59.01H53.65C54.5723 59.01 55.32 58.2623 55.32 57.34V55.95C55.32 55.0277 54.5723 54.28 53.65 54.28Z" fill="black"/>
<path d="M53.65 60.53H37.97C37.0477 60.53 36.3 61.2777 36.3 62.2V63.59C36.3 64.5123 37.0477 65.26 37.97 65.26H53.65C54.5723 65.26 55.32 64.5123 55.32 63.59V62.2C55.32 61.2777 54.5723 60.53 53.65 60.53Z" fill="black"/>
<path d="M53.65 66.77H37.97C37.0477 66.77 36.3 67.5177 36.3 68.44V69.83C36.3 70.7523 37.0477 71.5 37.97 71.5H53.65C54.5723 71.5 55.32 70.7523 55.32 69.83V68.44C55.32 67.5177 54.5723 66.77 53.65 66.77Z" fill="black"/>
<path d="M37.28 33.12H44.43V25.97C40.48 25.97 37.28 29.17 37.28 33.12Z" fill="black"/>
<path d="M44.43 33.12V40.27C48.38 40.27 51.58 37.07 51.58 33.12H44.43Z" fill="black"/>
<path d="M39.3 1.5C26.68 1.5 15.04 10.97 12.63 21.41C12.18 23.33 11.69 27.81 11.53 29.3C11.5 29.63 11.42 29.95 11.29 30.26L5.67 44.43C5.56 44.69 5.5 44.99 5.5 45.3C5.5 46.53 6.51 47.54 7.75 47.54H10.97C11.25 47.54 11.48 47.77 11.48 48.05V55.31C11.48 68.43 17.62 68.78 22.43 67.9C22.43 67.9 22.44 67.9 22.45 67.9L32.94 64.69C33.3 64.58 33.55 64.25 33.54 63.87L33.47 51.72C33.47 51.4 33.72 51.15 34.04 51.15L56 51.2C56.3 51.2 56.6 51.1 56.84 50.91C63.1 45.81 67.1 38.04 67.1 29.33C67.1 13.95 54.65 1.5 39.3 1.5ZM18.31 35.34C16.61 35.34 15.22 33.95 15.22 32.23C15.22 30.51 16.61 29.13 18.31 29.13C20.01 29.13 21.43 30.52 21.43 32.23C21.43 33.95 20.03 35.34 18.31 35.34ZM44.43 43.1C38.9 43.1 34.41 38.62 34.41 33.08C34.41 27.54 38.89 23.06 44.43 23.06C49.97 23.06 54.45 27.54 54.45 33.08C54.45 38.61 49.97 43.1 44.43 43.1Z" fill="#F4C653" stroke="black" stroke-linecap="round" stroke-linejoin="round"/>
<path d="M18.32 35.33C20.0321 35.33 21.42 33.9421 21.42 32.23C21.42 30.5179 20.0321 29.13 18.32 29.13C16.6079 29.13 15.22 30.5179 15.22 32.23C15.22 33.9421 16.6079 35.33 18.32 35.33Z" fill="black" stroke="black" stroke-linecap="round" stroke-linejoin="round"/>
</g>
</svg>
